<svg width="27" height="27" viewBox="0 0 27 27" fill="none" xmlns="http://www.w3.org/2000/svg">
<path d="M8 4C8 3.00544 8.39509 2.05161 9.09835 1.34835C9.80161 0.645088 10.7554 0.25 11.75 0.25C12.7446 0.25 13.6984 0.645088 14.4017 1.34835C15.1049 2.05161 15.5 3.00544 15.5 4H23V11.5C23.9946 11.5 24.9484 11.8951 25.6517 12.5983C26.3549 13.3016 26.75 14.2554 26.75 15.25C26.75 16.2446 26.3549 17.1984 25.6517 17.9017C24.9484 18.6049 23.9946 19 23 19V26.5H14.9963L14.8438 25.4275C14.7376 24.6826 14.3663 24.001 13.7979 23.5079C13.2296 23.0148 12.5024 22.7433 11.75 22.7433C10.9976 22.7433 10.2704 23.0148 9.70207 23.5079C9.13374 24.001 8.76239 24.6826 8.65625 25.4275L8.50375 26.5H0.5V18.4963L1.5725 18.3438C2.3174 18.2376 2.999 17.8663 3.49209 17.2979C3.98518 16.7296 4.25666 16.0024 4.25666 15.25C4.25666 14.4976 3.98518 13.7704 3.49209 13.2021C2.999 12.6337 2.3174 12.2624 1.5725 12.1562L0.5 12.0037V4H8ZM11.75 2.75C11.4185 2.75 11.1005 2.8817 10.8661 3.11612C10.6317 3.35054 10.5 3.66848 10.5 4V6.5H3V9.945C4.0973 10.3326 5.0474 11.0509 5.71942 12.001C6.39144 12.9511 6.75231 14.0863 6.75231 15.25C6.75231 16.4137 6.39144 17.5489 5.71942 18.499C5.0474 19.4491 4.0973 20.1674 3 20.555V24H6.445C6.83261 22.9027 7.55095 21.9526 8.50105 21.2806C9.45115 20.6086 10.5863 20.2477 11.75 20.2477C12.9137 20.2477 14.0489 20.6086 14.999 21.2806C15.9491 21.9526 16.6674 22.9027 17.055 24H20.5V16.5H23C23.3315 16.5 23.6495 16.3683 23.8839 16.1339C24.1183 15.8995 24.25 15.5815 24.25 15.25C24.25 14.9185 24.1183 14.6005 23.8839 14.3661C23.6495 14.1317 23.3315 14 23 14H20.5V6.5H13V4C13 3.66848 12.8683 3.35054 12.6339 3.11612C12.3995 2.8817 12.0815 2.75 11.75 2.75Z" fill="white"/>
</svg>
