<svg width="125" height="125" viewBox="0 0 125 125" fill="none" xmlns="http://www.w3.org/2000/svg">
<path d="M15.8361 124.508H0V1.44775H15.8361V124.508ZM3.95903 119.971H11.8771V5.98481H3.95903V119.971Z" fill="#CDCDCD"/>
<path d="M51.045 125H21.1411V1.21619H25.1001V120.657H47.086V1.21619H51.045V125Z" fill="#CDCDCD"/>
<path d="M48.6828 109.654H23.1206V105.31H46.7033V97.174H23.1206L21.1411 95.0024V45.9521L24.7966 44.8083L35.816 64.3966L47.086 45.7059V7.97719L37.4524 22.6142L34.2191 22.5852L21.4975 2.7074L24.7306 0.202708L35.8687 17.5904L47.4555 0L51.045 1.27404V46.3719L50.7151 47.5591L37.4128 69.623L34.074 69.5651L25.1001 53.5963V92.8307H48.6828L50.6623 95.0024V107.482L48.6828 109.654Z" fill="#CDCDCD"/>
<path d="M88.0226 125H58.1187V1.21619H62.0777V120.657H84.0635V1.21619H88.0226V125Z" fill="#CDCDCD"/>
<path d="M85.6603 109.654H60.0982V105.31H83.6808V97.174H60.0982L58.1187 95.0024V45.9521L61.7741 44.8083L72.7935 64.3966L84.0635 45.7059V7.97719L74.4299 22.6142L71.1967 22.5852L58.475 2.7074L61.7082 0.202708L72.8463 17.5904L84.433 0L88.0226 1.27404V46.3719L87.6926 47.5591L74.3903 69.623L71.0515 69.5651L62.0777 53.5963V92.8307H85.6603L87.6398 95.0024V107.482L85.6603 109.654Z" fill="#CDCDCD"/>
<path d="M125 125H95.0962V1.21619H99.0552V120.657H121.041V1.21619H125V125Z" fill="#CDCDCD"/>
<path d="M122.638 109.654H97.0757V105.31H120.658V97.174H97.0757L95.0962 95.0024V45.9521L98.7517 44.8083L109.771 64.3966L121.041 45.7059V7.97719L111.407 22.6142L108.174 22.5852L95.4525 2.7074L98.6857 0.202708L109.824 17.5904L121.411 0L125 1.27404V46.3719L124.67 47.5591L111.368 69.623L108.029 69.5651L99.0552 53.5963V92.8307H122.638L124.617 95.0024V107.482L122.638 109.654Z" fill="#CDCDCD"/>
</svg>
