<svg width="125" height="125" viewBox="0 0 125 125" fill="none" xmlns="http://www.w3.org/2000/svg">
<path d="M125 125H0.0151367V0H125V125ZM4.62655 120.6H120.388V4.40038H4.62655V120.6Z" fill="#CDCDCD"/>
<path d="M81.207 125H2.32107L0.0153629 122.8V80.6882L2.36718 78.488L34.0322 79.1481L34.4626 55.1367H2.30571L0 52.9218V28.0303L2.33643 25.8302L34.893 26.3435V2.18549H39.5044V50.7216H78.8859V2.18549H83.4973V122.785L81.1916 124.985L81.207 125ZM60.9014 120.6H78.9013V55.122H60.9014V120.6ZM39.5198 120.6H56.29V55.122H39.5198V120.6ZM4.62678 120.6H34.9084V83.5631L4.62678 82.9324V120.6ZM4.62678 50.7216H32.9101H34.9084V30.7586L4.62678 30.2745V50.7216Z" fill="#CDCDCD"/>
</svg>
