<svg width="125" height="125" viewBox="0 0 125 125" fill="none" xmlns="http://www.w3.org/2000/svg">
<path d="M28.082 125H0V0H28.082V125ZM3.85566 120.312H24.2264V4.6875H3.85566V120.312Z" fill="#CDCDCD"/>
<path d="M27.1181 102.219H0V72.8594L10.9758 60.2656L0 46.25V30.2187H26.1542V34.9062H3.85566V44.375L27.1181 74.0625V102.203V102.219ZM3.85566 97.5312H23.2625V75.9531L13.6362 63.6719L3.85566 74.8906V97.5312Z" fill="#CDCDCD"/>
<path d="M60.3921 125H32.3101V0H60.3921V125ZM36.1657 120.312H56.5364V4.6875H36.1657V120.312Z" fill="#CDCDCD"/>
<path d="M59.4282 102.219H32.3101V72.8594L43.2858 60.2656L32.3101 46.2656V30.2343H58.4643V34.9218H36.1657V44.3906L59.4282 74.0781V102.219ZM36.1657 97.5312H55.5725V75.9531L45.9462 63.6719L36.1657 74.8906V97.5312Z" fill="#CDCDCD"/>
<path d="M92.6894 125H64.6074V0H92.6894V125ZM68.4631 120.312H88.8338V4.6875H68.4631V120.312Z" fill="#CDCDCD"/>
<path d="M91.7255 102.219H64.6074V72.8594L75.5832 60.2656L64.6074 46.2656V30.2343H90.7616V34.9218H68.4631V44.3906L91.7255 74.0781V102.219ZM68.4631 97.5312H87.8699V75.9531L78.2436 63.6719L68.4631 74.8906V97.5312Z" fill="#CDCDCD"/>
<path d="M125 125H96.918V0H125V125ZM100.774 120.312H121.144V4.6875H100.774V120.312Z" fill="#CDCDCD"/>
<path d="M124.036 102.219H96.918V72.8594L107.894 60.2656L96.918 46.25V30.2187H123.072V34.9062H100.774V44.375L124.036 74.0625V102.203V102.219ZM100.774 97.5312H120.18V75.9531L110.554 63.6719L100.774 74.8906V97.5312Z" fill="#CDCDCD"/>
<path d="M13.7513 90.4218C10.1655 90.4218 7.24805 86.8906 7.24805 82.5312C7.24805 78.1719 10.1655 74.6406 13.7513 74.6406C17.337 74.6406 20.2545 78.1719 20.2545 82.5312C20.2545 86.8906 17.337 90.4218 13.7513 90.4218ZM13.7513 79.3437C12.2861 79.3437 11.1037 80.7812 11.1037 82.5469C11.1037 84.3125 12.2861 85.75 13.7513 85.75C15.2164 85.75 16.3988 84.3125 16.3988 82.5469C16.3988 80.7812 15.2164 79.3437 13.7513 79.3437Z" fill="#CDCDCD"/>
<path d="M45.8821 90.4218C42.2964 90.4218 39.3789 86.8906 39.3789 82.5312C39.3789 78.1719 42.2964 74.6406 45.8821 74.6406C49.4679 74.6406 52.3853 78.1719 52.3853 82.5312C52.3853 86.8906 49.4679 90.4218 45.8821 90.4218ZM45.8821 79.3437C44.417 79.3437 43.2346 80.7812 43.2346 82.5469C43.2346 84.3125 44.417 85.75 45.8821 85.75C47.3473 85.75 48.5297 84.3125 48.5297 82.5469C48.5297 80.7812 47.3473 79.3437 45.8821 79.3437Z" fill="#CDCDCD"/>
<path d="M111.428 90.4218C107.842 90.4218 104.925 86.8906 104.925 82.5312C104.925 78.1719 107.842 74.6406 111.428 74.6406C115.014 74.6406 117.931 78.1719 117.931 82.5312C117.931 86.8906 115.014 90.4218 111.428 90.4218ZM111.428 79.3437C109.963 79.3437 108.78 80.7812 108.78 82.5469C108.78 84.3125 109.963 85.75 111.428 85.75C112.893 85.75 114.076 84.3125 114.076 82.5469C114.076 80.7812 112.893 79.3437 111.428 79.3437Z" fill="#CDCDCD"/>
</svg>
