<svg width="125" height="125" viewBox="0 0 125 125" fill="none" xmlns="http://www.w3.org/2000/svg">
<path d="M125 124.771H94.7676V2.6286H98.7718V120.486H120.996V2.6286H125V124.771Z" fill="#CDCDCD"/>
<path d="M122.611 101.057H96.7697V96.7714H120.608V78.7429H96.7697L94.7676 76.6V22.4857L98.4782 21.3572L109.61 40.6857L120.996 22.2429V9.30002L111.252 23.7429L107.995 23.7143L95.128 4.10002L98.4115 1.62859L109.65 18.7857L121.369 1.42859L125 2.68573V22.9L124.666 24.0714L111.212 45.8429L107.848 45.7857L98.7718 30.0429V74.4572H122.611L124.613 76.6V98.9143L122.611 101.057Z" fill="#CDCDCD"/>
<path d="M16.0171 125H0V0H16.0171V125ZM4.00427 120.714H12.0128V4.28571H4.00427V120.714Z" fill="#CDCDCD"/>
<path d="M52.8694 124.771H22.6372V2.6286H26.6415V120.486H48.8652V2.6286H52.8694V124.771Z" fill="#CDCDCD"/>
<path d="M50.4803 101.057H24.6393V96.7714H48.4781V78.7429H24.6393L22.6372 76.6V22.4857L26.3478 21.3572L37.4797 40.6857L48.8652 22.2429V9.30002L39.1215 23.7429L35.8647 23.7143L22.9976 4.10002L26.2811 1.62859L37.5197 18.7857L49.2389 1.42859L52.8694 2.68573V22.9L52.5358 24.0714L39.0814 45.8429L35.7179 45.7857L26.6415 30.0429V74.4572H50.4803L52.4824 76.6V98.9143L50.4803 101.057Z" fill="#CDCDCD"/>
<path d="M88.7615 124.771H58.5293V2.6286H62.5336V120.486H84.7573V2.6286H88.7615V124.771Z" fill="#CDCDCD"/>
<path d="M86.3723 101.057H60.5314V96.7714H84.3702V78.7429H60.5314L58.5293 76.6V22.4857L62.2399 21.3572L73.3718 40.6857L84.7573 22.2429V9.30002L75.0136 23.7429L71.7567 23.7143L58.8897 4.10002L62.1732 1.62859L73.4118 18.7857L85.131 1.42859L88.7615 2.68573V22.9L88.4278 24.0714L74.9735 45.8429L71.6099 45.7857L62.5336 30.0429V74.4572H86.3723L88.3744 76.6V98.9143L86.3723 101.057Z" fill="#CDCDCD"/>
</svg>
