<svg width="125" height="125" viewBox="0 0 125 125" fill="none" xmlns="http://www.w3.org/2000/svg">
<path d="M125 124.862H105.52V0H125V124.862ZM110.39 120.258H120.13V4.60349H110.39V120.258Z" fill="#CDCDCD"/>
<path d="M99.026 125H0V0H99.026V125ZM4.87013 120.397H94.1558V4.60349H4.87013V120.397Z" fill="#CDCDCD"/>
<path d="M60.8766 124.847H26.7856V3.62137H31.6558V120.243H56.0064V2.85413H60.8766V124.847Z" fill="#CDCDCD"/>
<path d="M30.844 34.3113H0.811523V38.9148H30.844V34.3113Z" fill="#CDCDCD"/>
<path d="M30.844 66.5358H0.811523V71.1393H30.844V66.5358Z" fill="#CDCDCD"/>
<path d="M81.5748 110.039H41.8183L41.4124 65.0013H28.4092V60.3978H60.065V65.0013H46.2825L46.6559 105.435H76.7046V71.1392H57.63V66.5358H81.5748V110.039Z" fill="#CDCDCD"/>
<path d="M60.065 22.0353H28.4092V26.6388H60.065V22.0353Z" fill="#CDCDCD"/>
<path d="M99.0261 78.8117H59.2534V83.4152H99.0261V78.8117Z" fill="#CDCDCD"/>
</svg>
