<svg width="125" height="125" viewBox="0 0 125 125" fill="none" xmlns="http://www.w3.org/2000/svg">
<path d="M124.985 125H0V0H124.985V125ZM4.61141 120.6H120.373V4.40038H4.61141V120.6Z" fill="#CDCDCD"/>
<path d="M90.0916 122.8H85.4802V74.2637H46.0987V122.8H41.4873V2.20019L43.793 0H122.679L124.985 2.20019V44.3118L122.633 46.512L90.9678 45.8519L90.5374 69.8633H122.694L125 72.0781V96.9696L122.664 99.1698L90.107 98.6564V122.814L90.0916 122.8ZM90.0916 94.2414L120.373 94.7254V74.2783H92.0899H90.0916V94.2414ZM68.71 69.8779H85.4802V4.40038H68.71V69.8779ZM46.0987 69.8779H64.0986V4.40038H46.0987V69.8779ZM90.0916 41.4369L120.373 42.0676V4.40038H90.0916V41.4369Z" fill="#CDCDCD"/>
<path d="M43.793 74.2637H2.30566V69.8633H41.4873V41.0848H2.30566V36.6844H43.793L46.0987 38.8846V72.0635L43.793 74.2637Z" fill="#CDCDCD"/>
</svg>
