<svg width="125" height="125" viewBox="0 0 125 125" fill="none" xmlns="http://www.w3.org/2000/svg">
<path d="M19.4805 124.862H0V0H19.4805V124.862ZM4.87013 120.258H14.6104V4.60349H4.87013V120.258Z" fill="#CDCDCD"/>
<path d="M125 125H25.9741V0H125V125ZM30.8443 120.397H120.13V4.60349H30.8443V120.397Z" fill="#CDCDCD"/>
<path d="M86.8507 122.131H81.9805V4.74155H57.6299V121.363H52.7598V0.138062H86.8507V122.131Z" fill="#CDCDCD"/>
<path d="M56.8184 78.3973H27.5977V83.0008H56.8184V78.3973Z" fill="#CDCDCD"/>
<path d="M56.8184 40.035H27.5977V44.6385H56.8184V40.035Z" fill="#CDCDCD"/>
<path d="M86.0391 30.828H54.3833V35.4315H86.0391V30.828Z" fill="#CDCDCD"/>
<path d="M86.0391 75.3284H54.3833V79.9319H86.0391V75.3284Z" fill="#CDCDCD"/>
<path d="M125 83.0009H85.2275V87.6043H125V83.0009Z" fill="#CDCDCD"/>
<path d="M103.896 113.691C98.0845 113.691 93.3442 109.21 93.3442 103.717C93.3442 98.223 98.0845 93.7423 103.896 93.7423C109.708 93.7423 114.448 98.223 114.448 103.717C114.448 109.21 109.708 113.691 103.896 113.691ZM103.896 98.3458C100.763 98.3458 98.2144 100.755 98.2144 103.717C98.2144 106.678 100.763 109.087 103.896 109.087C107.029 109.087 109.578 106.678 109.578 103.717C109.578 100.755 107.029 98.3458 103.896 98.3458Z" fill="#CDCDCD"/>
</svg>
