<svg width="125" height="125" viewBox="0 0 125 125" fill="none" xmlns="http://www.w3.org/2000/svg">
<path d="M95.9119 125H0V0.0153809H95.9119V125ZM4.71698 120.397H91.195V4.6183H4.71698V120.397Z" fill="#CDCDCD"/>
<path d="M58.9622 124.847H25.9434V3.63636H30.6603V120.244H54.2452V2.8692H58.9622V124.847Z" fill="#CDCDCD"/>
<path d="M29.8742 34.3225H0.786133V38.9254H29.8742V34.3225Z" fill="#CDCDCD"/>
<path d="M29.8742 66.5429H0.786133V71.1458H29.8742V66.5429Z" fill="#CDCDCD"/>
<path d="M58.176 60.4057H27.5156V65.0086H58.176V60.4057Z" fill="#CDCDCD"/>
<path d="M58.176 22.048H27.5156V26.651H58.176V22.048Z" fill="#CDCDCD"/>
<path d="M95.9121 78.8174H57.3901V83.4203H95.9121V78.8174Z" fill="#CDCDCD"/>
<path d="M75.4716 31.2538C69.8427 31.2538 65.2515 26.7737 65.2515 21.2809C65.2515 15.788 69.8427 11.3079 75.4716 11.3079C81.1005 11.3079 85.6917 15.788 85.6917 21.2809C85.6917 26.7737 81.1005 31.2538 75.4716 31.2538ZM75.4716 15.9108C72.437 15.9108 69.9684 18.3196 69.9684 21.2809C69.9684 24.2421 72.437 26.6509 75.4716 26.6509C78.5062 26.6509 80.9747 24.2421 80.9747 21.2809C80.9747 18.3196 78.5062 15.9108 75.4716 15.9108Z" fill="#CDCDCD"/>
<path d="M125 124.847H106.132V0H125V124.847ZM110.849 120.244H120.283V4.60292H110.849V120.244Z" fill="#CDCDCD"/>
</svg>
