<svg width="125" height="125" viewBox="0 0 125 125" fill="none" xmlns="http://www.w3.org/2000/svg">
<path d="M125 125H108.696V0H125V125ZM112.772 120.714H120.924V4.28571H112.772V120.714Z" fill="#CDCDCD"/>
<path d="M30.7744 123.343H0V1.20001H4.07609V119.057H26.6984V1.20001H30.7744V123.343Z" fill="#CDCDCD"/>
<path d="M28.3424 99.6286H2.03804V95.3429H26.3043V77.3143H2.03804L0 75.1714V21.0571L3.77717 19.9286L15.1087 39.2571L26.6984 20.8143V7.87143L16.7799 22.3143L13.4647 22.2857L0.366833 2.67143L3.70921 0.2L15.1494 17.3571L27.0788 0L30.7744 1.25714V21.4714L30.4348 22.6429L16.7391 44.4143L13.3152 44.3571L4.07609 28.6143V73.0286H28.3424L30.3804 75.1714V97.4857L28.3424 99.6286Z" fill="#CDCDCD"/>
<path d="M67.3101 123.343H36.5356V1.20001H40.6117V119.057H63.234V1.20001H67.3101V123.343Z" fill="#CDCDCD"/>
<path d="M64.8781 99.6286H38.5737V95.3429H62.84V77.3143H38.5737L36.5356 75.1714V21.0571L40.3128 19.9286L51.6443 39.2571L63.234 20.8143V7.87143L53.3155 22.3143L50.0003 22.2857L36.9025 2.67143L40.2449 0.2L51.6851 17.3571L63.6145 0L67.3101 1.25714V21.4714L66.9704 22.6429L53.2748 44.4143L49.8509 44.3571L40.6117 28.6143V73.0286H64.8781L66.9161 75.1714V97.4857L64.8781 99.6286Z" fill="#CDCDCD"/>
<path d="M103.845 123.343H73.0708V1.20001H77.1469V119.057H99.7692V1.20001H103.845V123.343Z" fill="#CDCDCD"/>
<path d="M101.413 99.6286H75.1088V95.3429H99.3751V77.3143H75.1088L73.0708 75.1714V21.0571L76.848 19.9286L88.1795 39.2571L99.7692 20.8143V7.87143L89.8507 22.3143L86.5355 22.2857L73.4376 2.67143L76.78 0.2L88.2202 17.3571L100.15 0L103.845 1.25714V21.4714L103.506 22.6429L89.8099 44.4143L86.386 44.3571L77.1469 28.6143V73.0286H101.413L103.451 75.1714V97.4857L101.413 99.6286Z" fill="#CDCDCD"/>
</svg>
