<svg width="125" height="125" viewBox="0 0 125 125" fill="none" xmlns="http://www.w3.org/2000/svg">
<path d="M125 125H28.481V0.0153809H125V125ZM33.2278 120.397H120.253V4.6183H33.2278V120.397Z" fill="#CDCDCD"/>
<path d="M98.8924 124.847H65.6646V2.8692H70.4114V120.244H94.1456V3.63636H98.8924V124.847Z" fill="#CDCDCD"/>
<path d="M123.418 41.994H94.9365V46.5969H123.418V41.994Z" fill="#CDCDCD"/>
<path d="M123.418 80.3517H94.9365V84.9546H123.418V80.3517Z" fill="#CDCDCD"/>
<path d="M97.31 89.5575H66.4556V94.1604H97.31V89.5575Z" fill="#CDCDCD"/>
<path d="M97.31 45.0626H66.4556V49.6655H97.31V45.0626Z" fill="#CDCDCD"/>
<path d="M67.2468 37.3911H28.481V41.994H67.2468V37.3911Z" fill="#CDCDCD"/>
<path d="M49.0504 31.2538C43.3859 31.2538 38.7656 26.7737 38.7656 21.2809C38.7656 15.788 43.3859 11.3079 49.0504 11.3079C54.715 11.3079 59.3352 15.788 59.3352 21.2809C59.3352 26.7737 54.715 31.2538 49.0504 31.2538ZM49.0504 15.9108C45.9966 15.9108 43.5125 18.3196 43.5125 21.2809C43.5125 24.2421 45.9966 26.6509 49.0504 26.6509C52.1042 26.6509 54.5884 24.2421 54.5884 21.2809C54.5884 18.3196 52.1042 15.9108 49.0504 15.9108Z" fill="#CDCDCD"/>
<path d="M18.9873 124.847H0V0H18.9873V124.847ZM4.74684 120.244H14.2405V4.60292H4.74684V120.244Z" fill="#CDCDCD"/>
</svg>
