<svg width="125" height="125" viewBox="0 0 125 125" fill="none" xmlns="http://www.w3.org/2000/svg">
<path d="M0.00022592 -4.79936e-06L124.985 -4.79936e-06L124.985 125L0.00022592 125L0.00022592 -4.79936e-06ZM120.373 4.40037L4.61164 4.40037L4.61164 120.6L120.373 120.6L120.373 4.40037Z" fill="#CDCDCD"/>
<path d="M43.793 2.49017e-05L122.679 2.49017e-05L124.985 2.20021V44.3118L122.633 46.512L90.9678 45.8519L90.5374 69.8633H122.694L125 72.0782V96.9697L122.664 99.1698L90.107 98.6565V122.815H85.4956V74.2784H46.1141V122.815H41.5027L41.5027 2.21489L43.8084 0.0147071L43.793 2.49017e-05ZM64.0986 4.4004H46.0987L46.0987 69.878H64.0986L64.0986 4.4004ZM85.4802 4.4004H68.71L68.71 69.878H85.4802L85.4802 4.4004ZM120.373 4.4004H90.0916L90.0916 41.4369L120.373 42.0676V4.4004ZM120.373 74.2784H92.0899H90.0916V94.2414L120.373 94.7255V74.2784Z" fill="#CDCDCD"/>
</svg>
