<svg width="76" height="28" viewBox="0 0 76 28" fill="none" xmlns="http://www.w3.org/2000/svg">
<path d="M75.1865 12.8824L62.6734 0.369292C62.4378 0.133639 62.1175 0.00102014 61.7839 0.00102014H35.9916C35.2969 0.00102014 34.7337 0.56414 34.7337 1.25886V11.6602L22.5012 0.334607C22.2686 0.119357 21.9636 0 21.6463 0H1.25771C0.749678 0 0.290613 0.307063 0.0957655 0.77633C-0.099082 1.24662 0.00803309 1.78831 0.368144 2.14842L12.0202 13.7974L0.393648 25.4261C0.0335367 25.7862 -0.0735784 26.3269 0.121269 26.7971C0.316117 27.2674 0.775181 27.5735 1.28321 27.5735H21.6463C21.9626 27.5735 22.2686 27.4541 22.5012 27.2389L34.7337 15.9306V26.3136C34.7337 27.0083 35.2969 27.5714 35.9916 27.5714H61.7574C62.0909 27.5714 62.4113 27.4388 62.6469 27.2021L75.1865 14.6605C75.6782 14.1688 75.6782 13.372 75.1865 12.8814V12.8824ZM21.1546 25.0568H4.3212L14.691 14.686C14.9266 14.4503 15.0592 14.13 15.0592 13.7964C15.0592 13.4628 14.9266 13.1425 14.691 12.9069L4.29672 2.5167H21.1536L33.3361 13.7964L21.1546 25.0568ZM61.2371 25.0558H37.2504V2.51772H61.2636L72.5189 13.7719L61.2371 25.0558ZM57.0096 10.1004C54.9734 10.1004 53.3208 11.7521 53.3208 13.7862C53.3208 15.8204 54.9734 17.473 57.0096 17.473C59.0458 17.473 60.6944 15.8224 60.6944 13.7862C60.6944 11.75 59.0438 10.1004 57.0096 10.1004Z" fill="black"/>
</svg>
