<svg width="30" height="30" viewBox="0 0 30 30" fill="none" xmlns="http://www.w3.org/2000/svg">
<path d="M18.8701 7.38C18.1182 6.61414 17.222 6.00484 16.2333 5.58729C15.2446 5.16974 14.1829 4.95222 13.1096 4.94729C12.0364 4.94235 10.9728 5.15011 9.98027 5.55855C8.98775 5.967 8.08599 6.56804 7.32707 7.32696C6.56815 8.08588 5.96711 8.98764 5.55867 9.98015C5.15023 10.9727 4.94247 12.0363 4.9474 13.1095C4.95233 14.1828 5.16985 15.2444 5.5874 16.2332C6.00495 17.2219 6.61425 18.1181 7.38011 18.87C8.90855 20.3706 10.9677 21.207 13.1096 21.1971C15.2516 21.1873 17.303 20.332 18.8176 18.8174C20.3321 17.3029 21.1874 15.2515 21.1972 13.1095C21.2071 10.9676 20.3707 8.90844 18.8701 7.38ZM5.61261 5.6125C7.52864 3.69695 10.1041 2.58571 12.8122 2.50603C15.5204 2.42635 18.1567 3.38425 20.182 5.18383C22.2073 6.98342 23.4687 9.48874 23.7081 12.1875C23.9476 14.8862 23.147 17.5744 21.4701 19.7025L28.1514 26.3837L26.3839 28.1512L19.7026 21.47C17.5739 23.1407 14.8879 23.9363 12.1927 23.6945C9.49745 23.4527 6.99599 22.1918 5.19858 20.1689C3.40117 18.146 2.44323 15.5136 2.52017 12.8086C2.59711 10.1037 3.70313 7.52994 5.61261 5.6125Z" fill="white"/>
</svg>
